<?xml version="1.0" standalone="no"?>
<!DOCTYPE svg PUBLIC "-//W3C//DTD SVG 20010904//EN"
 "http://www.w3.org/TR/2001/REC-SVG-20010904/DTD/svg10.dtd">
<svg version="1.0" xmlns="http://www.w3.org/2000/svg"
 width="300.000000pt" height="300.000000pt" viewBox="0 0 300.000000 300.000000"
 preserveAspectRatio="xMidYMid meet">
<metadata>
Created by potrace 1.10, written by Peter Selinger 2001-2011
</metadata>
<g transform="translate(0.000000,300.000000) scale(0.100000,-0.100000)"
fill="#000000" stroke="none">
<path d="M1082 2900 c-67 -20 -112 -44 -112 -60 0 -5 7 -7 15 -4 8 4 15 10 15
14 0 4 8 10 18 14 9 3 23 9 30 12 6 3 12 2 12 -4 0 -5 -12 -14 -27 -21 -20 -9
-24 -14 -14 -21 9 -5 23 1 40 19 29 29 61 46 61 32 0 -5 -6 -12 -12 -14 -10
-4 -10 -6 0 -6 8 -1 16 8 19 19 4 15 14 20 44 22 22 0 44 1 49 2 6 1 9 -3 8
-9 -1 -5 -8 -9 -15 -7 -18 4 -83 -28 -83 -40 0 -7 5 -6 13 1 8 6 17 8 20 4 4
-3 7 -2 7 4 0 6 12 8 26 5 16 -3 29 1 34 9 11 17 169 18 179 0 5 -7 15 -9 26
-5 13 6 16 4 10 -6 -5 -8 -3 -11 6 -8 8 3 39 -8 69 -24 30 -15 67 -28 82 -28
16 0 28 -4 28 -9 0 -11 56 -32 64 -24 3 4 6 0 6 -7 0 -7 3 -10 7 -7 3 4 12 2
20 -4 9 -9 13 -8 13 0 0 6 -12 16 -27 22 l-28 11 25 10 c28 10 90 2 90 -12 0
-6 -4 -10 -8 -10 -5 0 -17 -7 -28 -16 -19 -15 -19 -16 1 -9 11 4 26 10 34 13
9 3 12 1 7 -6 -4 -7 -3 -12 3 -12 5 0 11 6 14 13 3 9 8 9 18 -2 9 -9 9 -11 2
-7 -7 4 -13 2 -13 -3 0 -6 6 -11 13 -11 15 0 84 -48 79 -56 -2 -2 -1 -10 1
-17 4 -9 6 -8 6 1 2 27 51 -46 51 -74 l-1 -29 -16 30 c-9 17 -25 37 -36 45
-11 8 -32 27 -46 41 -24 24 -81 59 -97 59 -10 0 88 -80 119 -96 15 -8 27 -20
27 -27 0 -7 11 -28 25 -47 14 -19 25 -43 25 -54 1 -29 22 -54 40 -48 13 5 13
3 0 -13 -14 -17 -13 -18 2 -13 17 7 48 -19 48 -40 0 -7 3 -12 8 -12 15 0 40
-58 35 -84 -4 -21 -2 -26 15 -26 20 0 21 1 6 42 -17 48 -37 83 -66 113 -57 60
-68 81 -69 128 -2 63 0 58 -33 110 -64 100 -229 181 -281 137 -17 -14 -33 -6
-74 41 -17 20 -46 43 -64 52 -42 19 -147 31 -147 16 0 -5 4 -8 8 -5 5 3 24 1
43 -4 19 -5 47 -11 62 -14 31 -5 97 -51 97 -67 0 -13 -7 -11 -36 8 -14 9 -62
29 -107 43 -47 16 -81 32 -79 39 2 9 -9 10 -35 5 -21 -4 -42 -6 -48 -5 -61 11
-168 7 -223 -9z"/>
<path d="M922 2779 c-34 -38 -52 -49 -94 -59 -29 -7 -65 -21 -80 -31 -14 -11
-31 -19 -38 -19 -6 0 -8 -4 -5 -10 3 -5 2 -10 -4 -10 -6 0 -18 -14 -27 -32 -9
-17 -29 -43 -44 -57 -42 -38 -70 -106 -70 -173 0 -31 -4 -59 -10 -63 -5 -3 -7
-12 -4 -20 3 -8 -2 -37 -11 -66 -19 -57 -17 -201 3 -221 8 -8 7 -19 -4 -41
-11 -20 -14 -43 -10 -71 4 -22 6 -61 6 -86 -1 -38 5 -52 32 -83 22 -24 42 -37
58 -37 14 0 30 -4 37 -8 15 -9 32 -53 39 -101 3 -20 9 -43 14 -51 4 -8 13 -46
20 -85 21 -109 70 -191 190 -319 25 -26 46 -51 48 -56 2 -4 37 -34 79 -66 l76
-58 -24 -16 c-48 -32 -119 -128 -119 -161 0 -18 -82 -94 -118 -110 -24 -10
-40 -30 -63 -76 -17 -33 -39 -69 -50 -79 -10 -9 -19 -23 -19 -29 0 -7 -6 -15
-14 -18 -29 -11 -49 -60 -57 -130 -4 -40 -14 -92 -24 -117 -20 -53 -33 -146
-19 -137 5 3 9 -14 9 -39 0 -28 4 -44 12 -44 9 0 11 20 6 80 -3 44 -3 80 1 80
10 0 66 -30 66 -35 0 -2 -8 -1 -17 2 -10 4 -1 -10 20 -30 20 -21 37 -42 37
-47 0 -6 5 -10 10 -10 14 0 12 11 -5 34 -8 11 -15 27 -15 36 0 24 -67 93 -81
84 -9 -5 -10 -2 -6 10 4 10 7 19 7 22 0 2 11 -2 25 -8 14 -6 25 -17 25 -25 0
-7 5 -13 10 -13 6 0 10 -7 10 -16 0 -17 21 -15 27 3 3 7 -13 30 -35 53 -39 42
-39 43 -36 109 2 36 8 67 14 69 5 2 8 7 6 11 -3 4 2 8 10 8 9 0 13 -6 10 -14
-3 -8 -2 -12 3 -9 7 5 46 -25 125 -96 23 -21 94 -55 132 -63 22 -5 25 -4 14 4
-8 5 -12 13 -8 16 7 8 48 -12 47 -23 -3 -20 2 -45 8 -39 3 4 12 2 20 -4 7 -6
13 -8 13 -4 0 4 -8 14 -17 21 -10 7 -18 17 -18 22 0 6 -10 21 -22 34 -13 12
-33 34 -46 48 -30 32 -140 116 -148 113 -4 -1 -5 6 -2 16 3 10 0 22 -6 25 -15
10 -14 26 3 26 10 0 12 11 9 40 -3 22 -2 48 3 58 4 9 6 22 5 29 -1 7 14 19 34
27 19 8 35 20 35 25 0 6 5 11 10 11 6 0 19 9 30 20 12 12 25 18 31 15 5 -4 9
-3 8 2 -4 21 2 43 14 55 12 12 30 49 27 56 -1 2 8 12 19 21 11 10 18 20 16 23
-7 7 47 53 67 56 9 1 19 -2 23 -8 3 -5 17 -10 29 -10 28 0 80 -38 56 -41 -8
-1 -19 -1 -23 0 -5 1 -6 -3 -2 -9 3 -5 2 -10 -3 -10 -18 0 -90 -71 -107 -106
-14 -31 -15 -44 -5 -107 7 -39 23 -99 35 -134 13 -35 20 -63 17 -63 -4 0 -1
-4 6 -9 7 -4 14 -14 16 -22 5 -32 18 -59 27 -59 6 0 8 -4 4 -9 -3 -5 -1 -12 5
-16 6 -4 7 -11 4 -17 -4 -6 -3 -8 3 -5 5 3 20 -16 33 -43 13 -28 27 -50 32
-50 5 0 6 -4 3 -10 -3 -5 -1 -10 4 -10 6 0 23 -19 37 -42 39 -62 47 -68 67
-53 23 17 21 44 -8 99 -13 25 -23 46 -20 46 2 0 -3 19 -12 43 -8 23 -15 64
-15 92 0 27 -4 53 -10 56 -10 7 -15 319 -5 336 8 13 -13 93 -25 93 -6 0 -8 7
-5 15 4 8 2 17 -3 20 -17 11 -11 23 18 33 56 20 112 47 112 54 0 5 7 8 15 8 8
0 20 9 27 20 7 11 17 20 23 20 9 0 46 27 88 64 9 9 21 16 25 16 4 0 36 27 70
60 67 64 82 72 82 41 0 -11 5 -23 10 -26 6 -3 10 -17 10 -31 0 -13 5 -24 10
-24 6 0 10 -7 10 -15 0 -19 20 -56 40 -72 8 -7 12 -13 8 -13 -4 0 1 -16 12
-35 l20 -35 -26 -80 c-26 -84 -41 -105 -149 -216 -70 -72 -85 -90 -85 -102 0
-4 -8 -17 -17 -28 -15 -15 -18 -38 -18 -114 -1 -90 -3 -99 -39 -170 -24 -47
-58 -93 -89 -122 -49 -46 -50 -48 -25 -48 23 0 87 42 96 63 2 4 7 5 12 2 4 -2
20 6 36 20 15 13 32 21 37 18 6 -3 7 -2 4 4 -8 12 37 56 47 46 4 -4 4 0 0 10
-3 10 -1 17 5 17 7 0 17 5 24 10 51 43 73 60 79 60 3 0 31 24 62 54 30 30 64
57 76 61 11 3 20 10 20 14 0 11 114 101 216 170 51 34 97 68 104 76 9 10 17
12 30 5 12 -6 28 -4 54 9 19 10 33 15 30 10 -3 -5 11 -1 30 8 46 23 45 33 -4
33 -22 0 -40 -4 -40 -9 0 -5 -10 -11 -22 -14 -13 -3 -34 -9 -48 -13 -23 -7
-24 -6 -11 10 8 9 29 23 48 31 18 8 37 25 43 39 8 21 5 31 -19 57 -16 17 -34
28 -40 25 -6 -4 -11 -2 -11 5 0 7 -3 10 -6 6 -3 -3 -1 -14 5 -24 8 -14 11 -15
11 -3 1 16 29 -27 29 -45 1 -5 -17 -22 -38 -38 l-39 -27 -53 35 c-30 19 -59
35 -66 35 -7 0 -13 5 -13 11 0 5 4 8 9 4 5 -3 12 -1 16 5 3 5 -1 10 -9 10 -9
0 -16 5 -16 11 0 5 6 7 13 3 8 -5 8 -2 -2 9 -7 9 -21 17 -30 17 -9 0 -33 16
-54 35 -22 21 -43 32 -52 29 -8 -4 -15 -2 -15 3 0 5 -13 10 -30 11 -38 3 -80
19 -80 31 0 5 23 3 53 -5 28 -7 62 -14 74 -14 12 0 24 -6 26 -12 4 -9 6 -8 6
2 1 17 -94 64 -121 61 -9 -1 -19 3 -23 9 -3 6 -11 8 -16 5 -5 -4 -9 -1 -9 6 0
7 -7 20 -16 30 -10 11 -13 25 -9 39 7 21 11 22 88 15 44 -3 84 -8 87 -10 4 -2
22 -7 41 -10 19 -3 55 -12 80 -21 25 -8 54 -16 65 -18 30 -6 91 -45 98 -62 3
-8 10 -12 16 -9 5 3 10 1 10 -4 0 -6 7 -11 15 -11 26 0 17 15 -33 53 -46 35
-108 63 -160 73 -13 3 -42 11 -65 19 -44 15 -160 29 -214 27 -78 -4 -108 39
-76 109 16 34 22 39 54 39 72 0 95 11 165 79 92 87 127 146 122 206 -3 47 -4
46 66 69 26 9 15 17 -31 23 -21 3 -40 7 -42 9 -9 9 23 54 39 54 9 0 35 17 58
38 36 34 42 45 42 80 0 25 -5 42 -12 42 -6 0 -9 2 -6 6 3 3 -14 24 -39 47 -48
45 -55 73 -40 157 7 47 -2 117 -17 117 -14 0 -15 -109 -1 -119 6 -5 6 -8 -2
-8 -6 0 -16 -14 -22 -30 -5 -17 -6 -28 -2 -25 10 5 21 -17 21 -41 0 -8 23 -37
50 -64 41 -40 50 -56 50 -84 0 -28 -8 -41 -42 -70 -23 -20 -43 -34 -46 -31 -2
2 5 20 17 40 28 49 28 98 -2 122 -33 26 -60 70 -51 84 4 7 2 10 -7 7 -8 -3
-13 -17 -13 -31 1 -15 -2 -27 -6 -27 -10 0 -9 -33 3 -47 6 -9 5 -13 -4 -13 -8
0 -1 -12 16 -26 24 -20 30 -34 31 -70 1 -24 -3 -44 -8 -44 -5 0 -6 -5 -2 -11
4 -7 1 -10 -7 -7 -8 3 -13 13 -11 23 2 9 -1 14 -7 11 -5 -4 -12 -2 -16 4 -9
15 -85 50 -85 39 0 -6 -4 -8 -10 -4 -15 9 -77 -21 -90 -44 -15 -29 -28 -19
-25 21 1 18 -1 38 -4 43 -3 6 -6 12 -6 15 -1 3 -4 14 -7 25 -3 11 -9 37 -13
58 -5 29 -9 36 -18 28 -9 -7 -13 -5 -13 9 0 10 4 16 8 14 4 -3 5 2 2 10 -3 9
-12 12 -22 9 -11 -5 -14 -2 -9 10 3 9 3 16 -1 14 -9 -3 -83 69 -76 75 2 3 -4
11 -13 19 -16 12 -17 12 -5 -2 10 -13 9 -19 -3 -29 -9 -7 -18 -10 -22 -6 -3 3
-1 6 5 6 7 0 12 4 12 10 0 5 -6 7 -14 4 -12 -5 -114 38 -206 85 -8 5 -26 4
-39 -1 -17 -6 -32 -3 -57 13 -19 11 -34 23 -34 25 0 3 5 2 10 -1 6 -3 10 -4
10 -1 0 9 -58 36 -78 36 -11 0 -25 -7 -32 -15 -15 -18 -35 -20 -24 -3 4 6 3 8
-3 5 -5 -3 -30 0 -55 8 -40 12 -47 12 -52 -1 -3 -8 -10 -14 -16 -14 -6 0 -8 5
-4 12 4 7 3 8 -4 4 -6 -3 -28 3 -49 14 -21 11 -33 20 -28 20 5 0 -1 7 -13 16
-13 9 -26 13 -29 10 -4 -3 -12 3 -20 14 -8 11 -20 20 -26 20 -8 0 -8 -3 2 -9
10 -7 10 -10 1 -16 -7 -4 -15 -2 -19 4 -9 13 -21 0 -66 -69 -17 -25 -40 -54
-51 -65 -25 -23 -100 -120 -87 -112 5 3 9 -3 9 -14 0 -10 -4 -19 -8 -19 -4 0
-8 5 -8 12 0 8 -5 7 -15 -3 -21 -20 -29 -131 -18 -230 7 -61 6 -76 -4 -72 -7
3 -10 9 -7 14 3 5 -2 9 -10 9 -9 0 -16 5 -16 11 0 5 -4 7 -10 4 -5 -3 -12 6
-16 21 -4 17 -9 22 -14 14 -5 -9 -9 -9 -14 -1 -4 6 -4 16 0 23 5 7 3 8 -6 3
-10 -6 -12 -3 -8 13 5 16 2 22 -10 23 -14 0 -13 2 3 9 20 9 20 9 0 9 -15 1
-16 4 -7 10 7 4 12 12 11 17 -4 22 2 35 12 28 9 -5 10 1 5 22 -9 37 -14 65
-15 82 -1 8 -6 10 -13 6 -9 -5 -9 -2 1 9 10 13 10 17 1 17 -9 0 -10 4 -2 13 6
7 9 22 6 33 -2 10 4 44 15 74 14 41 16 57 8 62 -7 4 -7 8 -2 8 17 0 33 45 20
57 -6 6 -9 28 -6 54 5 40 6 41 9 12 2 -18 7 -33 12 -33 4 0 6 16 3 35 -7 51
13 104 43 111 13 3 22 9 19 14 -5 8 41 33 65 36 22 2 110 60 103 68 -3 3 1 6
10 6 8 0 19 9 22 21 4 11 9 18 12 16 2 -3 13 2 22 11 10 10 30 27 45 40 15 12
24 26 21 31 -2 5 2 11 10 15 18 7 20 23 2 23 -7 0 -31 -22 -55 -48z m-72 -75
c0 -4 -11 -17 -25 -30 -14 -13 -25 -19 -25 -14 0 5 -7 7 -15 4 -13 -5 -13 -9
-3 -22 9 -11 9 -13 1 -9 -6 4 -30 -2 -53 -14 -52 -27 -62 -18 -20 18 55 47
140 87 140 67z m76 -396 c9 -30 43 -78 55 -78 14 0 11 20 -6 36 -8 9 -15 25
-15 36 0 24 8 19 24 -14 13 -27 84 -64 141 -74 36 -6 39 -6 26 9 -7 9 -18 14
-24 10 -6 -3 -7 -1 -3 5 4 7 2 12 -3 12 -6 0 -11 5 -11 10 0 16 27 12 34 -5 3
-8 12 -15 20 -15 7 0 17 -7 20 -16 3 -8 10 -13 15 -10 5 4 11 3 13 -1 5 -11
80 -45 86 -39 2 3 -7 21 -22 41 -39 50 -22 61 22 15 20 -22 42 -40 49 -40 7 0
16 -6 20 -13 10 -15 80 -53 87 -46 3 3 3 15 -1 27 -4 18 -8 20 -19 11 -8 -7
-17 -9 -21 -5 -3 3 -1 6 5 6 6 0 9 6 6 14 -4 10 1 14 15 13 12 -1 21 -7 21
-14 0 -15 97 -73 123 -73 9 0 17 -4 17 -10 0 -5 7 -10 15 -10 8 0 15 -4 15
-10 0 -5 9 -10 19 -10 12 0 23 -11 30 -32 8 -24 14 -29 23 -20 8 8 8 19 -2 42
-7 17 -10 33 -7 37 4 3 11 -6 16 -20 5 -13 23 -40 38 -58 43 -50 65 -89 52
-89 -7 0 -9 -8 -5 -22 4 -13 8 -32 10 -43 1 -11 8 -30 15 -43 13 -24 8 -42
-12 -42 -9 0 -9 2 -1 8 9 5 9 10 -1 18 -9 9 -12 3 -13 -30 -1 -22 -7 -42 -12
-44 -18 -6 -11 -22 10 -22 11 0 20 -4 20 -9 0 -5 3 -18 6 -28 6 -16 5 -16 -9
2 -16 20 -16 20 -17 -2 0 -36 11 -53 34 -53 31 0 39 11 18 26 -16 13 -16 13 2
14 12 0 16 5 12 16 -3 8 -2 12 4 9 17 -10 34 6 19 17 -11 7 -11 11 -1 15 6 2
12 11 12 18 0 7 9 15 20 18 13 3 18 10 14 21 -6 15 6 21 30 17 4 -1 14 3 21 9
14 12 46 0 73 -26 44 -45 60 -190 26 -243 -10 -14 -48 -58 -87 -98 -52 -54
-78 -73 -105 -78 -93 -18 -87 -19 -76 22 5 17 16 24 51 29 35 5 42 9 29 16
-18 10 -11 32 19 62 23 23 26 54 10 93 -18 42 -18 43 -5 43 13 0 45 -32 53
-53 9 -23 26 -21 20 2 -7 26 -40 61 -58 61 -19 0 -19 19 -1 26 8 3 12 12 9 21
-6 16 31 52 53 53 14 0 34 -67 34 -116 0 -39 -24 -89 -63 -131 -11 -13 -18
-26 -15 -29 9 -9 48 19 54 38 3 10 9 18 14 18 29 0 38 138 13 200 -24 61 -39
64 -84 18 -48 -50 -66 -103 -50 -149 15 -45 14 -79 -4 -86 -9 -3 -25 -23 -36
-45 -13 -26 -25 -38 -35 -34 -13 5 -19 -5 -15 -26 0 -5 -4 -8 -9 -8 -6 0 -10
-9 -10 -19 0 -11 -7 -26 -15 -35 -8 -8 -15 -20 -15 -26 0 -18 -30 -70 -40 -70
-6 0 -33 -23 -61 -50 -28 -28 -56 -50 -63 -50 -6 0 -19 -8 -28 -17 -9 -10 -32
-29 -52 -43 -20 -14 -49 -35 -64 -48 -56 -46 -183 -94 -217 -82 -11 4 -23 6
-28 3 -4 -2 -14 3 -23 11 -8 9 -21 16 -29 16 -7 0 -26 12 -43 28 -43 39 -71
62 -77 62 -2 0 -24 21 -47 47 -24 25 -53 57 -66 70 -41 42 -132 175 -132 193
0 11 -4 21 -9 24 -5 3 -11 23 -13 45 l-3 38 25 -16 c14 -9 32 -24 41 -35 13
-15 19 -17 37 -7 11 6 42 11 67 11 50 0 76 10 114 44 l24 21 -8 -25 c-4 -14
-10 -46 -12 -72 -5 -44 -3 -48 22 -58 41 -15 76 -13 69 5 -5 11 1 15 21 15 15
0 24 4 20 10 -9 14 -54 7 -64 -9 -13 -20 -51 5 -51 32 0 12 9 47 21 77 19 50
25 88 28 192 1 31 5 38 32 47 42 15 84 14 97 -1 8 -11 17 -54 27 -133 6 -47
70 -114 121 -126 21 -5 75 -9 119 -8 106 1 141 24 180 114 15 35 27 81 27 100
0 20 2 34 5 31 3 -3 14 -1 24 5 21 11 26 43 7 36 -7 -2 -22 1 -33 7 -11 6 -38
12 -60 13 -22 1 -71 4 -110 6 -55 4 -77 1 -107 -15 -21 -11 -38 -24 -38 -28 0
-17 18 -20 29 -6 7 8 25 19 41 25 27 9 31 7 42 -17 18 -37 55 -42 64 -8 6 27
23 31 59 17 11 -5 25 -4 33 2 10 8 12 -4 8 -59 -2 -38 -6 -76 -8 -84 -11 -37
-32 -69 -41 -63 -6 3 -7 1 -3 -5 24 -40 -182 -62 -251 -27 -63 32 -89 86 -95
200 l-3 60 43 9 c49 10 58 36 13 36 -37 0 -79 -22 -73 -38 5 -15 -24 -16 -34
-1 -4 8 -26 9 -65 5 -46 -5 -64 -3 -81 8 -28 20 -62 22 -37 3 21 -16 37 -65
33 -102 -2 -16 -5 -52 -7 -79 -9 -90 -85 -151 -170 -135 -23 4 -45 5 -49 3 -4
-2 -9 0 -13 6 -3 5 -14 10 -23 10 -30 1 -74 49 -88 98 -13 43 -12 45 2 27 15
-19 16 -17 9 29 -4 27 -11 58 -16 70 -6 14 -7 6 -3 -26 4 -31 2 -48 -4 -48 -6
0 -11 8 -11 18 0 9 -3 31 -7 48 -5 26 -2 32 20 42 27 12 37 38 11 28 -8 -3
-15 0 -16 7 0 7 -2 21 -4 32 -10 49 -18 125 -20 181 -1 33 -5 66 -9 72 -4 7
-1 12 8 12 9 0 16 -12 18 -32 2 -18 8 -31 13 -28 6 3 9 12 8 20 -4 26 44 140
59 140 14 0 60 49 54 59 -4 5 2 12 11 15 16 5 30 28 47 79 8 24 23 21 32 -5z
m1212 -370 c18 -23 32 -44 32 -48 0 -3 -11 -7 -25 -8 -27 -2 -44 21 -52 69 -6
40 7 36 45 -13z m-1568 -143 c0 -24 -4 -33 -13 -29 -8 3 -11 17 -9 39 5 44 22
36 22 -10z m43 1 c9 -7 17 -20 17 -28 0 -9 7 -21 16 -29 14 -11 14 -13 0 -21
-25 -14 -63 20 -64 59 -2 36 4 39 31 19z m1374 -886 c12 0 34 -5 50 -12 15 -6
35 -12 43 -12 8 -1 16 -10 18 -21 3 -15 1 -17 -9 -9 -8 6 -23 14 -34 16 -11 3
-27 9 -36 12 -13 6 -17 -3 -22 -54 -4 -34 -13 -76 -21 -93 -8 -18 -17 -50 -19
-72 -10 -82 -27 -138 -49 -161 -33 -35 -84 -65 -99 -59 -8 3 -25 29 -39 57
-32 65 -51 78 -87 58 -14 -8 -29 -22 -33 -30 -32 -64 -32 -66 -16 -114 l16
-48 -41 -60 c-22 -33 -38 -63 -34 -66 4 -4 11 1 16 10 5 9 16 24 25 33 8 8 12
15 7 15 -4 0 -1 6 8 13 33 26 39 52 23 100 l-16 46 32 46 c17 25 37 44 43 42
7 -2 23 -25 37 -51 15 -27 34 -54 43 -61 16 -11 14 -15 -18 -44 -20 -17 -47
-38 -61 -47 -14 -10 -64 -55 -111 -100 -48 -46 -88 -82 -91 -80 -2 2 8 22 22
45 14 22 26 44 26 47 0 4 10 30 23 58 20 43 23 61 18 116 -6 61 -4 68 27 118
19 30 64 85 100 122 37 38 75 78 84 89 21 25 55 99 63 137 3 16 8 36 10 44 2
8 4 19 4 23 1 5 18 -5 38 -22 21 -17 47 -31 60 -31z m206 -155 c12 -11 24 -18
27 -16 2 1 6 -3 9 -11 2 -7 0 -10 -4 -6 -4 4 -27 -6 -51 -23 -24 -16 -44 -27
-44 -23 0 3 -7 1 -15 -6 -8 -7 -12 -16 -9 -21 3 -5 2 -9 -3 -8 -18 3 -29 -2
-58 -26 -16 -13 -35 -28 -40 -32 -6 -5 -20 -16 -32 -26 -20 -18 -20 -18 -11
25 5 24 12 59 15 78 2 19 11 49 19 66 15 35 22 66 23 106 l1 27 75 -43 c42
-23 86 -51 98 -61z m-948 89 c14 -6 13 -8 -7 -19 -13 -6 -22 -17 -20 -24 1 -7
-1 -11 -5 -9 -5 3 -21 -9 -38 -25 -16 -16 -24 -26 -17 -23 6 4 12 3 12 -3 0
-5 -6 -11 -12 -14 -7 -2 -10 -7 -7 -11 4 -4 21 6 40 21 35 30 33 24 -21 -50
-30 -41 -35 -46 -38 -28 -2 12 -7 19 -12 16 -5 -3 0 18 11 47 10 29 26 56 34
61 20 11 55 49 55 59 0 10 3 10 25 2z m44 -66 c0 -18 2 -98 5 -176 5 -135 4
-143 -12 -130 -9 7 -23 21 -30 30 -8 11 -22 15 -46 12 -32 -4 -35 -1 -46 31
-6 19 -15 33 -20 30 -5 -3 -5 9 0 26 9 29 39 72 65 91 6 4 6 8 1 8 -6 0 -1 9
11 19 11 11 30 35 42 55 13 20 25 36 27 36 3 0 4 -15 3 -32z m-38 -307 c17
-18 19 -30 14 -61 -7 -43 7 -77 50 -123 14 -15 37 -56 50 -92 27 -70 32 -105
12 -67 -7 12 -16 20 -20 17 -4 -3 -5 -2 -2 1 8 12 -35 84 -50 84 -8 0 -14 3
-13 8 4 16 -14 52 -24 46 -7 -4 -8 -2 -4 5 4 6 -6 33 -23 60 -17 26 -31 53
-31 60 0 6 -9 29 -19 50 l-20 38 30 -2 c16 -1 39 -12 50 -24z m-360 -133 c24
-21 48 -38 54 -38 18 -1 47 -29 40 -39 -9 -15 -29 -3 -132 81 -98 80 -112 95
-113 120 0 12 17 1 53 -35 29 -28 73 -69 98 -89z m423 90 c9 -37 7 -98 -4 -98
-17 0 -31 50 -24 86 7 39 19 44 28 12z"/>
<path d="M1528 1975 c-2 -2 -35 -7 -73 -10 -66 -5 -97 -16 -78 -28 4 -3 31 -1
58 4 60 11 160 13 196 4 30 -7 50 10 22 19 -26 8 -119 16 -125 11z"/>
<path d="M1140 1946 c0 -37 10 -56 30 -56 22 0 36 17 42 53 7 39 -8 33 -22 -9
-9 -27 -15 -33 -21 -23 -5 8 -9 24 -9 37 0 12 -4 22 -10 22 -5 0 -10 -11 -10
-24z"/>
<path d="M888 1935 c-3 -3 -21 -7 -39 -9 -57 -6 -89 -18 -89 -32 0 -10 6 -11
26 -3 40 15 102 23 167 23 56 0 73 8 41 20 -19 7 -99 8 -106 1z"/>
<path d="M834 1711 c-24 -8 -44 -20 -44 -27 0 -18 11 -18 46 1 39 20 54 19 54
-5 0 -13 10 -22 33 -28 38 -11 41 -9 42 26 0 18 5 26 15 23 8 -2 20 -4 25 -5
6 -1 16 -5 23 -10 8 -5 18 -3 25 4 9 10 9 11 0 6 -7 -4 -13 -3 -13 3 0 25
-140 33 -206 12z"/>
<path d="M1316 1605 c-16 -24 -16 -25 4 -25 15 0 20 7 20 25 0 14 -2 25 -4 25
-2 0 -11 -11 -20 -25z"/>
<path d="M1590 1345 c0 -38 -26 -50 -36 -17 -3 9 -8 23 -10 31 -5 17 -14 9
-19 -16 -6 -38 49 -70 72 -40 13 16 15 77 2 77 -5 0 -9 -16 -9 -35z"/>
<path d="M1180 1218 c-19 -4 -52 -8 -72 -9 -21 -1 -38 -6 -38 -11 0 -7 24 -12
43 -9 82 15 265 23 271 12 10 -16 -39 -76 -76 -94 -32 -16 -43 -16 -77 -6 -22
7 -50 23 -62 35 -25 26 -39 31 -39 12 0 -16 67 -63 100 -71 14 -3 42 -2 64 3
43 10 107 65 99 86 -3 8 0 14 6 14 15 0 14 19 -1 33 -15 14 -164 17 -218 5z"/>
<path d="M2037 2354 c5 -13 7 -13 14 -2 7 10 9 10 9 -2 0 -9 9 -23 20 -33 25
-21 25 -14 3 24 -18 31 -57 42 -46 13z"/>
<path d="M2336 1002 c-3 -5 3 -18 14 -30 11 -11 21 -27 22 -34 2 -7 14 -24 28
-37 14 -13 18 -20 10 -16 -8 4 1 -6 20 -23 19 -17 41 -31 48 -32 6 0 12 -4 12
-9 0 -5 9 -13 21 -16 45 -15 108 -86 114 -130 1 -5 5 -17 8 -25 6 -15 20 -84
22 -110 4 -30 5 -32 20 -20 8 7 12 17 8 23 -6 10 -15 68 -14 100 0 9 -5 17
-11 17 -6 0 -9 3 -5 6 10 10 -22 76 -51 107 -15 16 -47 40 -72 53 -57 30 -94
63 -114 102 -16 32 -59 82 -69 82 -3 0 -8 -4 -11 -8z"/>
<path d="M2283 935 c0 -8 5 -15 10 -15 5 0 22 -11 39 -25 16 -14 27 -25 23
-25 -4 0 1 -7 9 -16 9 -9 14 -26 12 -40 -4 -19 0 -24 15 -24 20 0 23 10 13 47
-4 13 -11 20 -17 16 -6 -4 -8 0 -4 10 3 10 2 17 -4 17 -6 0 -8 4 -5 8 2 4 -10
14 -27 21 -18 8 -39 20 -48 27 -13 12 -16 12 -16 -1z"/>
<path d="M2667 503 c-11 -10 -8 -25 3 -18 6 3 10 1 10 -4 0 -6 -7 -11 -15 -11
-8 0 -24 -9 -34 -19 -14 -14 -22 -16 -31 -8 -10 9 -11 9 -5 -2 6 -11 3 -13
-13 -9 -12 4 -20 3 -18 -1 5 -7 -127 -44 -199 -56 -11 -2 -20 -4 -20 -5 0 -1
-53 -14 -140 -34 -11 -3 -38 -7 -60 -9 -40 -5 -126 -35 -135 -47 -3 -4 -12 -7
-20 -8 -8 0 -44 -8 -80 -17 -36 -9 -75 -17 -87 -18 -11 -1 -19 -5 -17 -9 7
-10 -89 -55 -106 -50 -12 4 -13 3 -2 -10 10 -12 10 -17 -1 -27 -8 -6 -18 -7
-22 -3 -5 4 -5 1 -1 -5 9 -15 46 4 46 24 0 14 47 29 57 19 3 -3 -5 -10 -18
-15 -14 -6 -17 -10 -9 -10 9 -1 22 5 29 11 11 11 13 10 8 -5 -6 -15 -4 -16 16
-3 18 11 57 22 117 31 3 0 11 4 19 9 11 7 12 6 6 -5 -7 -11 -6 -12 6 -3 8 7
34 14 59 17 25 3 68 13 95 21 53 16 87 23 147 31 21 3 59 12 84 21 26 9 61 17
78 18 17 1 37 5 45 10 10 7 12 6 6 -4 -6 -9 1 -8 21 3 29 15 82 32 96 29 15
-3 127 56 120 63 -4 5 -1 5 6 0 8 -4 12 -16 9 -26 -3 -11 -2 -17 2 -15 4 3 13
1 20 -3 10 -6 3 -16 -25 -35 -45 -31 -53 -32 -69 -9 -15 20 -70 20 -91 -1 -8
-9 -20 -16 -25 -16 -5 0 -9 -7 -9 -16 0 -8 -4 -13 -9 -10 -9 6 -18 -9 -19 -28
0 -5 -7 -13 -16 -18 -9 -5 -16 -16 -16 -25 0 -9 -6 -24 -14 -32 -7 -9 -16 -29
-20 -46 -5 -22 -4 -26 4 -15 8 13 10 12 10 -5 0 -16 2 -17 10 -5 7 12 11 10
19 -10 5 -14 10 -19 10 -12 1 8 9 10 26 6 21 -5 25 -3 25 16 0 19 -2 20 -15
10 -9 -7 -19 -10 -22 -6 -4 4 -1 11 7 16 29 16 92 66 147 115 30 28 64 54 76
58 24 9 47 3 47 -13 0 -6 -4 -8 -10 -5 -13 8 -60 -17 -86 -47 -35 -38 -82 -78
-92 -78 -9 0 -42 -32 -42 -42 0 -2 7 -5 15 -5 8 0 15 5 15 10 0 6 3 8 6 4 3
-3 15 3 27 13 12 11 36 29 54 42 18 13 51 39 75 58 23 19 39 29 35 23 -5 -8
-3 -13 7 -13 12 0 16 -11 17 -37 1 -21 2 -45 3 -53 2 -8 3 -43 4 -77 2 -47 6
-63 16 -63 20 0 11 217 -10 241 -8 9 -12 18 -9 20 8 8 -54 144 -64 142 -5 -1
-8 11 -6 28 3 19 -1 32 -10 35 -8 3 -17 14 -20 25 -7 20 -17 24 -28 12z m43
-62 c0 -27 -189 -99 -306 -116 -21 -3 -64 -13 -94 -22 -30 -8 -66 -16 -80 -18
-14 -1 -47 -8 -75 -15 -27 -6 -58 -12 -67 -13 -10 -1 -18 -5 -18 -9 0 -4 -9
-8 -19 -8 -11 0 -23 -5 -27 -11 -3 -6 -17 -8 -29 -5 -13 3 -26 2 -30 -4 -3 -5
-19 -8 -35 -6 -16 2 -31 0 -32 -4 -2 -5 -17 -10 -34 -13 -17 -3 -41 -10 -54
-17 -18 -10 -21 -9 -18 1 2 7 17 17 34 22 16 6 32 15 36 21 4 6 8 8 8 4 0 -3
23 0 52 7 28 8 55 12 60 9 14 -9 49 7 42 18 -4 6 -1 9 7 6 8 -3 37 3 64 12 28
9 75 20 105 24 30 4 78 13 105 21 48 14 74 20 140 31 17 3 35 9 40 14 6 4 28
10 50 13 22 4 67 20 100 36 66 33 75 35 75 22z m-76 -155 c-3 -9 -17 -19 -30
-22 -27 -7 -134 -122 -134 -144 0 -4 -7 -7 -15 -7 -8 0 -15 9 -15 19 0 11 7
18 19 18 12 0 23 11 29 30 14 38 52 76 105 105 47 25 50 25 41 1z"/>
<path d="M762 158 c-7 -7 -12 -18 -12 -25 0 -22 29 -73 41 -73 8 0 8 4 0 13
-6 8 -8 17 -4 20 3 4 2 7 -4 7 -6 0 -10 16 -9 35 1 19 1 35 1 35 -1 0 -6 -5
-13 -12z"/>
</g>
</svg>
